<?xml version="1.0" encoding="UTF-8"?>
<svg version="1.1" xmlns="http://www.w3.org/2000/svg" width="442" height="480">
<path d="M0 0 C0.82951172 0.30131836 1.65902344 0.60263672 2.51367188 0.91308594 C21.22623235 7.8257103 38.09398076 17.68405782 55.14111328 27.87841797 C69.84263074 36.66889347 84.69595743 44.47772942 100.22119141 51.68823242 C103.16938589 53.0799605 106.08400854 54.54200427 109 56 C109 80.75 109 105.5 109 131 C78.8750023 131.03010369 48.75001062 131.05121015 18.625 131.0625 C16.93705126 131.06315145 16.93705126 131.06315145 15.21500254 131.06381607 C-51.71251305 131.08894113 -118.63644947 130.95427499 -185.5625 130.5 C-186.44497123 130.49402628 -187.32744246 130.48805257 -188.23665524 130.48189783 C-194.35162204 130.44043952 -200.46658432 130.39835652 -206.58154297 130.35571289 C-207.34494688 130.35039138 -208.1083508 130.34506986 -208.89488816 130.33958709 C-223.92998906 130.23427272 -238.9649725 130.11592476 -254 130 C-254 110.86 -254 91.72 -254 72 C-246.8225 71.8453125 -246.8225 71.8453125 -239.5 71.6875 C-236.61680329 71.5975022 -233.73384705 71.49839193 -230.8515625 71.3828125 C-229.54525879 71.3327002 -228.23895508 71.28258789 -226.89306641 71.23095703 C-181.50394876 68.53823752 -131.25890242 39.75346315 -92.1640625 17.86328125 C-84.26041314 13.48519233 -76.18333198 9.79528739 -67.875 6.25 C-66.80209717 5.78972412 -65.72919434 5.32944824 -64.6237793 4.85522461 C-57.21324114 1.74725068 -49.73135283 -0.8096536 -42 -3 C-41.31832764 -3.19585693 -40.63665527 -3.39171387 -39.93432617 -3.59350586 C-27.08977354 -6.29275868 -12.14775056 -4.5708295 0 0 Z " fill="#018754" transform="translate(276,213)"/>
<path d="M0 0 C14.512162 -0.56523819 27.52213792 -0.36445738 41.046875 5.14746094 C41.74474121 5.41558594 42.44260742 5.68371094 43.16162109 5.95996094 C54.41052521 10.31730376 64.39052377 16.25693843 74.546875 22.70996094 C82.9614943 28.02954785 91.67920746 32.82248579 100.37646484 37.66015625 C102.81919654 39.02065373 105.25632264 40.39052405 107.69140625 41.76464844 C117.22371276 47.12571153 126.87262828 52.23318788 136.609375 57.21411133 C137.5478125 57.6974292 138.48625 58.18074707 139.453125 58.67871094 C140.29166016 59.10732422 141.13019531 59.5359375 141.99414062 59.97753906 C144.046875 61.14746094 144.046875 61.14746094 146.046875 63.14746094 C146.22219789 66.01634675 146.27825114 68.78738739 146.2421875 71.65527344 C146.23794266 72.91620316 146.23794266 72.91620316 146.23361206 74.2026062 C146.2223993 76.8927014 146.19729303 79.58246604 146.171875 82.27246094 C146.1618466 84.09407072 146.15272051 85.91568571 146.14453125 87.73730469 C146.12245642 92.20748452 146.08791934 96.67741665 146.046875 101.14746094 C142.1523877 99.92824321 138.61227043 98.5324745 135.01953125 96.60058594 C134.07384277 96.09229248 133.1281543 95.58399902 132.15380859 95.06030273 C131.14914551 94.51156494 130.14448242 93.96282715 129.109375 93.39746094 C128.05830566 92.82616455 127.00723633 92.25486816 125.92431641 91.66625977 C115.58421926 85.99008496 105.55110762 79.8444883 95.51025391 73.66015625 C85.02994073 67.22447533 74.44195645 61.74932075 63.046875 57.14746094 C61.79390625 56.6021875 61.79390625 56.6021875 60.515625 56.04589844 C45.50905398 50.39201428 26.95092942 53.98645192 12.6862793 60.17089844 C5.98199179 63.35040101 0.11140583 67.44017575 -5.890625 71.77246094 C-22.31207915 83.37692012 -39.59094128 92.67247474 -57.48828125 101.79980469 C-61.25950491 103.73037042 -64.97957174 105.70033163 -68.63671875 107.83886719 C-90.00023144 120.19002875 -115.83365659 127.44998773 -139.953125 132.14746094 C-141.05575684 132.3648291 -142.15838867 132.58219727 -143.29443359 132.80615234 C-171.5034624 138.31510194 -171.5034624 138.31510194 -185.328125 138.28027344 C-186.60393433 138.28170853 -186.60393433 138.28170853 -187.90551758 138.28317261 C-189.68359451 138.28384755 -191.46167401 138.28204164 -193.23974609 138.27783203 C-195.97368781 138.27242023 -198.70746921 138.27782738 -201.44140625 138.28417969 C-203.17447953 138.28351983 -204.90755271 138.28224058 -206.640625 138.28027344 C-207.46030762 138.28229767 -208.27999023 138.2843219 -209.12451172 138.28640747 C-214.83813834 138.26244759 -214.83813834 138.26244759 -215.953125 137.14746094 C-216.33174629 133.64262537 -216.38505206 130.10667678 -216.515625 126.58496094 C-216.5580835 125.49771729 -216.60054199 124.41047363 -216.64428711 123.2902832 C-217.14460811 108.91385628 -217.04295613 94.53011553 -216.953125 80.14746094 C-216.1187793 80.13811523 -215.28443359 80.12876953 -214.42480469 80.11914062 C-186.93545706 79.73345789 -164.07230677 75.10396581 -138.36865234 65.42822266 C-135.60921134 64.39348159 -132.84273249 63.38932551 -130.06640625 62.40136719 C-119.18270047 58.38940538 -109.56256966 52.31927423 -99.7109375 46.26464844 C-89.30933616 39.88219414 -78.67155424 33.90751178 -68.04980469 27.90136719 C-65.35893701 26.3773059 -62.67446426 24.84281361 -59.9921875 23.30371094 C-51.83345674 18.65347619 -43.53006247 14.36667668 -35.078125 10.27246094 C-34.15088623 9.81959717 -33.22364746 9.3667334 -32.26831055 8.90014648 C-21.66075172 3.8478048 -11.72406288 0.58542774 0 0 Z " fill="#C3DBCD" transform="translate(238.953125,17.8525390625)"/>
<path d="M0 0 C29.50758229 -0.6524392 51.16619637 10.78731865 75.73046875 25.61328125 C76.71756836 26.20858643 76.71756836 26.20858643 77.72460938 26.81591797 C79.3228938 27.78004666 80.92045903 28.74536791 82.51757812 29.71142578 C99.03218373 39.66098723 115.94436861 49.09857881 133.93359375 56.1484375 C135.04663372 65.03522906 135.0486834 73.8371664 134.99609375 82.7734375 C134.99106678 84.26952975 134.986506 85.76562363 134.98242188 87.26171875 C134.9715156 90.89065969 134.95431757 94.51953777 134.93359375 98.1484375 C131.43576633 96.80653321 128.74180845 95.42675786 125.80859375 93.0859375 C123.39348655 91.16418877 121.90591453 90.13921109 118.93359375 89.1484375 C118.93359375 88.4884375 118.93359375 87.8284375 118.93359375 87.1484375 C118.20124512 86.87241699 117.46889648 86.59639648 116.71435547 86.31201172 C114.11346417 85.22370198 111.8433754 83.99909133 109.44140625 82.53125 C108.58321289 82.01256348 107.72501953 81.49387695 106.84082031 80.95947266 C105.92268555 80.40308105 105.00455078 79.84668945 104.05859375 79.2734375 C71.27022108 59.70229558 44.34363916 46.49420705 5.93359375 56.1484375 C0.09148727 57.78422731 -4.51838254 60.35943864 -9.5390625 63.7421875 C-10.59891357 64.4547168 -11.65876465 65.16724609 -12.75073242 65.90136719 C-15.96286545 68.07484112 -19.16677592 70.2603362 -22.37109375 72.4453125 C-35.34923499 81.26801686 -48.38034751 89.49903166 -62.33642578 96.72314453 C-65.20010037 98.21823774 -68.03808801 99.75556359 -70.875 101.30078125 C-94.90801634 114.29786205 -122.15738335 123.97340511 -149.06640625 129.1484375 C-150.08379883 129.34622803 -151.10119141 129.54401855 -152.14941406 129.74780273 C-155.64018268 130.41571243 -159.13390595 131.06555936 -162.62890625 131.7109375 C-164.39911133 132.04254883 -164.39911133 132.04254883 -166.20507812 132.38085938 C-186.13489281 136.07239192 -206.86459533 137.39863921 -227.06640625 135.1484375 C-228.06640625 134.1484375 -228.06640625 134.1484375 -228.18666077 131.86424255 C-228.18444016 130.85386429 -228.18221954 129.84348602 -228.17993164 128.80249023 C-228.17985611 127.6613829 -228.17978058 126.52027557 -228.17970276 125.34458923 C-228.17454147 124.1029451 -228.16938019 122.86130096 -228.1640625 121.58203125 C-228.16264755 120.31827164 -228.1612326 119.05451202 -228.15977478 117.75245667 C-228.15511207 114.38718861 -228.14612105 111.0219876 -228.1350708 107.65673828 C-228.12485471 104.2249408 -228.12027674 100.79313641 -228.11523438 97.36132812 C-228.10418005 90.62367926 -228.08742335 83.88606225 -228.06640625 77.1484375 C-227.18718506 77.1390918 -226.30796387 77.12974609 -225.40209961 77.12011719 C-207.25259911 76.87880205 -189.86710805 76.02995462 -172.06640625 72.1484375 C-170.59668558 71.85640003 -169.12664801 71.56595148 -167.65625 71.27734375 C-131.51115973 63.85875354 -97.57452726 43.66926835 -66.25390625 24.9609375 C-44.8396808 12.18287227 -25.38863753 0.74631814 0 0 Z " fill="#79B695" transform="translate(250.06640625,108.8515625)"/>
<path d="M0 0 C6 0 6 0 8.31420898 1.6171875 C9.39424194 2.73480469 9.39424194 2.73480469 10.49609375 3.875 C11.30240234 4.69613281 12.10871094 5.51726562 12.93945312 6.36328125 C13.76380859 7.23339844 14.58816406 8.10351562 15.4375 9 C16.25798828 9.83917969 17.07847656 10.67835938 17.92382812 11.54296875 C22.23186591 15.97821914 26.40078588 20.507544 30.41430664 25.2109375 C32.1929134 27.21765502 34.10390438 29.10390438 36 31 C36.33 20.77 36.66 10.54 37 0 C39.31 0 41.62 0 44 0 C44 16.83 44 33.66 44 51 C38 51 38 51 35.47265625 49.09375 C34.27962891 47.80984375 34.27962891 47.80984375 33.0625 46.5 C32.19367188 45.57832031 31.32484375 44.65664063 30.4296875 43.70703125 C27.93929674 40.93236759 25.49080077 38.12856492 23.0703125 35.29296875 C18.27542027 29.98239943 13.08272128 25.03032209 8 20 C7.67 29.9 7.34 39.8 7 50 C4.69 50 2.38 50 0 50 C0 33.5 0 17 0 0 Z " fill="#098556" transform="translate(110,377)"/>
<path d="M0 0 C1.051875 0.0309375 1.051875 0.0309375 2.125 0.0625 C5.84865017 8.84558143 8.89785945 17.86568388 11.98095703 26.88745117 C12.88180889 29.51989677 13.79034277 32.14961246 14.69921875 34.77929688 C15.27390414 36.45556926 15.84813945 38.13199603 16.421875 39.80859375 C16.82959137 40.98511757 16.82959137 40.98511757 17.24554443 42.18540955 C18.28945458 45.25893484 19.125 47.79283698 19.125 51.0625 C15.165 51.0625 11.205 51.0625 7.125 51.0625 C4.65 43.6375 4.65 43.6375 2.125 36.0625 C-3.155 35.7325 -8.435 35.4025 -13.875 35.0625 C-14.32875 36.774375 -14.7825 38.48625 -15.25 40.25 C-16.23778704 43.97665112 -17.38019694 47.50746838 -18.875 51.0625 C-21.515 51.0625 -24.155 51.0625 -26.875 51.0625 C-24.13583545 41.65996945 -20.93374691 32.46792739 -17.56958008 23.27319336 C-16.89363982 21.41185873 -16.22773877 19.54685008 -15.5715332 17.6784668 C-14.61667495 14.96272573 -13.63050192 12.26029439 -12.63671875 9.55859375 C-12.34899094 8.72017441 -12.06126312 7.88175507 -11.76481628 7.01792908 C-10.94805061 4.85486847 -10.1821668 2.96963412 -8.875 1.0625 C-5.72393331 -0.04909925 -3.3085275 0.07192451 0 0 Z M-5.875 12.0625 C-7.855 17.6725 -9.835 23.2825 -11.875 29.0625 C-7.915 29.0625 -3.955 29.0625 0.125 29.0625 C-2.16022341 20.49769252 -2.16022341 20.49769252 -4.875 12.0625 C-5.205 12.0625 -5.535 12.0625 -5.875 12.0625 Z " fill="#098556" transform="translate(344.875,375.9375)"/>
<path d="M0 0 C1.15242188 0.10183594 2.30484375 0.20367187 3.4921875 0.30859375 C4.36101562 0.39238281 5.22984375 0.47617187 6.125 0.5625 C7.11530231 4.68298864 6.99625129 6.70992381 5.125 10.5625 C4.48433594 10.40652344 3.84367187 10.25054687 3.18359375 10.08984375 C-2.24734363 8.8676805 -6.42555361 8.37783774 -11.875 9.5625 C-12.20925735 11.93624861 -12.20925735 11.93624861 -11.875 14.5625 C-8.09640602 17.99022454 -3.34106924 19.76677332 1.25 21.8671875 C4.98455929 24.06935969 7.19383134 26.70016268 9.125 30.5625 C9.93480094 37.08073377 9.04786213 41.29760608 5.125 46.5625 C-1.67406383 51.83524338 -7.51091633 52.17502128 -15.875 51.5625 C-18.85821851 50.85352523 -21.09439172 49.92657198 -23.875 48.5625 C-25.47531344 45.36187313 -23.90673691 42.83978194 -22.875 39.5625 C-19.77512556 40.00533921 -16.99925277 40.51556006 -14.0625 41.625 C-9.85514246 42.8624581 -6.25301064 42.69516699 -1.875 42.5625 C-1.875 39.5925 -1.875 36.6225 -1.875 33.5625 C-2.514375 33.315 -3.15375 33.0675 -3.8125 32.8125 C-19.07060515 26.58470198 -19.07060515 26.58470198 -21.98046875 21.7109375 C-23.51506611 18.02522333 -23.41999372 14.4796424 -22.875 10.5625 C-20.49736836 5.71578935 -17.60385396 3.11608114 -12.875 0.5625 C-8.43433741 -0.45358381 -4.52238132 -0.41532073 0 0 Z " fill="#0A8556" transform="translate(212.875,376.4375)"/>
<path d="M0 0 C9.24 0 18.48 0 28 0 C28 2.31 28 4.62 28 7 C22.39 7 16.78 7 11 7 C11 11.62 11 16.24 11 21 C16.28 21 21.56 21 27 21 C26.67 23.31 26.34 25.62 26 28 C21.05 28 16.1 28 11 28 C11 32.95 11 37.9 11 43 C17.27 43.33 23.54 43.66 30 44 C29.67 45.98 29.34 47.96 29 50 C19.43 50 9.86 50 0 50 C0 33.5 0 17 0 0 Z " fill="#098556" transform="translate(258,377)"/>
<path d="M0 0 C3.63 0 7.26 0 11 0 C11 16.5 11 33 11 50 C7.37 50 3.74 50 0 50 C0 33.5 0 17 0 0 Z " fill="#098555" transform="translate(60,377)"/>
</svg>
